<svg xmlns="http://www.w3.org/2000/svg" xmlns:xlink="http://www.w3.org/1999/xlink" viewBox="0 0 512 512"><defs><linearGradient id="a" x1="34.52" y1="227.41" x2="332.51" y2="227.41" gradientUnits="userSpaceOnUse"><stop offset="0" stop-color="#c03a2a"/><stop offset="1" stop-color="#f49c13"/></linearGradient><linearGradient id="b" x1="66.17" y1="397.56" x2="258.01" y2="397.56" xlink:href="#a"/><linearGradient id="c" x1="183.91" y1="268.72" x2="481.51" y2="268.72" xlink:href="#a"/><linearGradient id="d" x1="258.01" y1="88.56" x2="415.83" y2="88.56" xlink:href="#a"/></defs><title>logo [Recovered]</title><path d="M332.51,256q0,6.17-.5,12.18A242.09,242.09,0,0,0,66.17,347.81,149,149,0,1,1,332.51,256Z" fill="url(#a)"/><path d="M258,446.65A149,149,0,0,1,66.17,409.41a242.26,242.26,0,0,1,117.74-80.89A149,149,0,0,0,258,446.65Z" fill="url(#b)"/><path d="M481.51,256a149,149,0,0,1-297.6,10.93A243.23,243.23,0,0,1,332,268.18q.5-6,.5-12.18a148.18,148.18,0,0,0-17.71-70.51,241.44,241.44,0,0,0,101-53A148.85,148.85,0,0,1,481.51,256Z" fill="url(#c)"/><path d="M415.83,74.76a241.44,241.44,0,0,1-101,53A149.56,149.56,0,0,0,258,69.26a149.1,149.1,0,0,1,157.82,5.5Z" fill="url(#d)"/></svg>