<svg xmlns="http://www.w3.org/2000/svg" viewBox="0 0 102 143.08"><title>logoStripe</title><path d="M139.69,111c-12.93-4.78-20-8.5-20-14.34,0-5,4.07-7.8,11.33-7.8,13.28,0,26.92,5.14,36.3,9.74l5.32-32.76c-7.44-3.54-22.67-9.38-43.74-9.38-14.88,0-27.28,3.89-36.13,11.15-9.21,7.62-14,18.6-14,31.88,0,24.08,14.7,34.35,38.61,43,15.4,5.49,20.54,9.39,20.54,15.41,0,5.84-5,9.21-14,9.21-11.16,0-29.58-5.49-41.62-12.58L77,187.68c10.27,5.84,29.4,11.86,49.23,11.86,15.76,0,28.86-3.72,37.72-10.8C173.86,181,179,169.44,179,154.56,179,130,164,119.68,139.69,111Z" transform="translate(-77 -56.46)" fill="#231f20"/></svg>