<svg xmlns="http://www.w3.org/2000/svg" viewBox="0 0 223 146"><title>logoCommerce</title><path d="M265.9,172.2C300.5,206.9,309,215.9,309,218c0,1.7-1.5,4-4.5,7l-4.5,4.5-45.8-45.8-45.7-45.8,4.7-4.4c2.9-2.8,5.6-4.5,7.1-4.5C222.2,129,232.6,138.9,265.9,172.2Z" transform="translate(-88.5 -126.5)" stroke="#000" stroke-miterlimit="10" stroke-width="5"/><path d="M235.8,184.7l54.3,54.7-15.4,15.3c-11.2,11.2-16,15.3-17.7,15.3s-9.2-6.8-29.7-27.2L200,215.5l-27.3,27.3C152.1,263.3,144.8,270,143,270s-8.5-6.1-27.2-24.7C94.4,223.9,91,220.1,91,217.5s5.3-8.3,42.3-45.2c36.5-36.5,42.6-42.3,45.2-42.3S187.8,136.3,235.8,184.7Z" transform="translate(-88.5 -126.5)" stroke="#000" stroke-miterlimit="10" stroke-width="5"/><path d="M154.2,183.7c-3.8.7-9.9,7.3-11.1,12-3.4,12.6,9.1,24.4,21.4,20.3,5-1.6,10.2-7.1,11.1-11.5C178.2,190.7,168.2,181,154.2,183.7Zm3,12.5c-2.6,2.6-1.4,3.8,3.3,3.1l4.5-.6v3.5c0,2.7-.4,3.4-2.1,3.5-2,.2-2,.1-.3-1.8,2.4-2.7.7-4.4-2.9-2.8-2.1.9-3,.9-4.2-.1-2.2-1.8-1.6-6,.9-6C158,195,158.1,195.3,157.2,196.2Z" transform="translate(-88.5 -126.5)" fill="#fff"/></svg>